<?xml version="1.0" encoding="utf-8"?>
<svg version="1.2" viewBox="0 0 1052.3625 414.5675" height="414.5675" width="1052.3625" id="ude-logo" preserveAspectRatio="none" xmlns="http://www.w3.org/2000/svg">
  <style type="text/css">
path { fill:#FFFFFF;fill-opacity:1;fill-rule:nonzero;stroke:none }
</style>
  <g transform="matrix(1.25, 0, 0, -1.25, 73.839752, 343.526245)">
    <path d="m 0,0 c 0,5.246 -1.094,7.721 -4.588,7.721 -8.666,0 -13.325,-17.549 -13.325,-29.418 0,-5.17 1.093,-7.645 4.659,-7.645 C -4.588,-29.342 0,-11.869 0,0 m -14.271,-36.988 c -8.595,0 -13.474,5.24 -13.474,15.074 0,17.035 7.501,37.279 24.249,37.279 8.446,0 13.324,-5.314 13.324,-15.146 0,-16.963 -7.426,-37.207 -24.099,-37.207"/>
  </g>
  <g transform="matrix(1.25, 0, 0, -1.25, 103.516876, 388.848511)">
    <path d="m 0,0 c -1.384,-6.846 -4.079,-14.199 -13.98,-14.199 -3.352,0 -6.482,0.437 -6.482,1.238 0,0.287 0.072,0.506 0.145,0.799 l 1.529,5.099 c 0.147,0.36 0.294,0.508 0.512,0.508 0.216,0 1.455,-0.365 2.984,-0.365 4.951,0 5.825,3.348 6.772,8.008 l 5.68,28.836 -5.172,0 c -0.436,0 -1.018,0.074 -1.018,0.73 0,0.291 0.075,0.58 0.144,0.871 l 0.874,4.082 c 0.075,0.651 0.219,0.87 1.021,0.87 l 5.388,0 0.875,4.589 c 1.092,5.897 2.985,11.651 12.959,11.651 3.058,0 7.355,-0.949 7.355,-2.041 0,-0.221 -0.074,-0.363 -0.146,-0.582 L 17.694,44.996 C 17.475,44.559 17.256,44.49 17.11,44.49 c -0.728,0 -2.184,0.944 -4.369,0.944 -3.786,0 -4.296,-2.838 -4.951,-5.825 l -0.654,-3.132 8.3,0 c 0.655,0 0.874,-0.364 0.874,-0.653 0,-0.293 -0.146,-0.586 -0.219,-0.875 L 14.78,30.727 c -0.219,-0.655 -0.291,-0.803 -1.019,-0.803 l -7.864,0 L 0,0 Z"/>
  </g>
  <g transform="matrix(1.25, 0, 0, -1.25, 135.557877, 388.848511)">
    <path d="m 0,0 c -1.384,-6.846 -4.079,-14.199 -13.98,-14.199 -3.35,0 -6.482,0.437 -6.482,1.238 0,0.287 0.072,0.506 0.147,0.799 l 1.528,5.099 c 0.146,0.36 0.29,0.508 0.509,0.508 0.218,0 1.456,-0.365 2.986,-0.365 4.954,0 5.825,3.348 6.772,8.008 l 5.679,28.836 -5.169,0 c -0.437,0 -1.021,0.074 -1.021,0.73 0,0.291 0.073,0.58 0.148,0.871 l 0.873,4.082 c 0.071,0.651 0.219,0.87 1.019,0.87 l 5.388,0 0.873,4.589 c 1.092,5.897 2.986,11.651 12.962,11.651 3.059,0 7.354,-0.949 7.354,-2.041 0,-0.221 -0.072,-0.363 -0.146,-0.582 L 17.691,44.996 C 17.475,44.559 17.257,44.49 17.11,44.49 c -0.728,0 -2.184,0.944 -4.367,0.944 -3.788,0 -4.298,-2.838 -4.953,-5.825 l -0.656,-3.132 8.301,0 c 0.656,0 0.875,-0.364 0.875,-0.653 0,-0.293 -0.146,-0.586 -0.219,-0.875 L 14.78,30.727 c -0.218,-0.655 -0.291,-0.803 -1.019,-0.803 l -7.865,0 L 0,0 Z"/>
  </g>
  <g transform="matrix(1.25, 0, 0, -1.25, 165.776367, 362.730377)">
    <path d="m 0,0 c 3.132,0 12.889,0 12.889,6.697 0,1.893 -1.165,3.573 -3.351,3.573 C 2.694,10.27 0.655,2.693 0,0 m 16.893,-16.453 c 0.073,-0.219 0.219,-0.438 0.219,-0.656 0,-0.95 -6.772,-4.516 -14.199,-4.516 -8.736,0 -12.67,5.459 -12.67,13.543 0,14.562 9.394,24.906 20.607,24.906 6.846,0 10.776,-3.793 10.776,-9.615 0,-13.76 -18.494,-13.76 -22.645,-13.76 0,-2.185 -0.582,-7.791 6.262,-7.791 4.295,0 8.155,2.91 9.248,2.91 0.363,0 0.438,-0.216 0.582,-0.509 l 1.82,-4.512 z"/>
  </g>
  <g transform="matrix(1.25, 0, 0, -1.25, 229.404266, 387.122375)" id="g36">
    <path d="m 0,0 c -0.145,-0.801 -0.291,-0.873 -1.019,-0.873 l -6.771,0 c -0.582,0 -0.947,0.148 -0.947,0.728 0,0.219 0.072,0.508 0.072,0.801 l 4.805,20.752 c 0.365,1.455 0.656,2.91 0.656,4.442 0,1.673 -0.656,2.841 -2.185,2.841 -6.698,0 -9.101,-9.031 -10.266,-14.273 L -18.785,0 c -0.146,-0.801 -0.293,-0.873 -1.021,-0.873 l -6.771,0 c -0.584,0 -0.946,0.148 -0.946,0.728 0,0.219 0.074,0.508 0.074,0.801 l 4.948,21.918 c 0.438,1.819 0.875,3.637 0.875,5.969 0,2.186 -0.656,3.203 -0.656,4.516 0,0.509 0.511,0.656 0.874,0.798 l 5.827,2.26 c 0.219,0.071 0.363,0.221 0.727,0.221 0.802,0 1.457,-3.279 1.457,-7.359 1.965,2.33 6.116,7.359 12.085,7.359 4.734,0 7.355,-3.643 7.355,-7.647 0,-1.892 -0.29,-3.859 -0.727,-5.683 L 0,0 Z"/>
  </g>
  <g transform="matrix(1.25, 0, 0, -1.25, 287.846619, 333.150269)" id="g40">
    <path id="path42" d="m 0,0 c -2.257,0 -4.079,1.822 -4.079,4.078 0,2.186 1.822,4.08 4.079,4.08 2.184,0 4.077,-1.894 4.077,-4.08 C 4.077,1.822 2.184,0 0,0 m -6.917,-42.594 c -0.148,-0.658 -0.22,-1.457 -0.947,-1.457 l -3.861,0 c -0.437,0 -0.728,0.149 -0.728,0.367 0,0.288 0.073,0.649 0.147,0.87 l 6.262,29.49 -5.752,0 c -0.51,0 -0.584,0.219 -0.584,0.511 0,0.145 0,0.288 0.074,0.583 l 0.51,2.328 c 0.146,0.511 0.365,0.8 0.874,0.8 l 9.685,0 c 1.017,0 1.162,-0.07 1.162,-0.582 0,-0.435 -0.218,-1.017 -0.362,-1.818 l -6.48,-31.092 z"/>
  </g>
  <g transform="matrix(1.25, 0, 0, -1.25, 344.91452, 356.90274)">
    <path id="path46" d="m 0,0 c 0.219,0.949 0.438,1.967 0.438,2.912 0,2.041 -1.092,3.129 -3.277,3.129 -7.646,0 -9.902,-7.643 -11.65,-15.506 l -3.277,-14.855 c -0.147,-0.512 -0.29,-0.729 -0.875,-0.729 l -3.786,0 c -0.364,0 -0.582,0.149 -0.582,0.436 0,0.144 0,0.363 0.074,0.511 L -17.838,0 c 0.218,0.949 0.437,1.967 0.437,2.912 0,2.041 -1.093,3.129 -3.279,3.129 -7.645,0 -10.483,-9.684 -11.503,-14.488 l -3.352,-15.873 c -0.144,-0.512 -0.287,-0.729 -0.871,-0.729 l -3.788,0 c -0.363,0 -0.582,0.149 -0.582,0.436 0,0.144 0,0.363 0.075,0.511 l 5.166,24.463 c 0.294,1.532 0.513,3.131 0.513,4.155 0,1.453 -0.293,2.91 -0.582,4.367 0,0.291 0.363,0.51 0.654,0.582 l 2.476,1.092 c 0.437,0.144 0.728,0.363 1.018,0.363 0.8,0 1.312,-1.82 1.312,-3.637 0,-1.461 -0.147,-2.33 -0.147,-3.279 l 0.147,0 c 2.402,3.496 5.898,6.916 11.65,6.916 3.495,0 6.116,-1.963 6.116,-6.916 l 0.145,0 C -9.685,7.5 -6.188,10.92 -0.654,10.92 3.132,10.92 5.972,8.957 5.972,5.098 5.972,3.348 5.607,1.674 5.244,0 L 0.072,-24.32 c -0.143,-0.512 -0.29,-0.729 -0.871,-0.729 l -3.788,0 c -0.364,0 -0.581,0.149 -0.581,0.436 0,0.144 0,0.363 0.073,0.511 L 0,0 Z"/>
  </g>
  <g transform="matrix(1.25, 0, 0, -1.25, 401.174408, 382.115143)" id="g48">
    <path id="path50" d="m 0,0 c 4.441,0 8.301,1.891 10.776,5.02 4.732,5.466 7.572,19.009 7.572,26 0,8.519 -4.661,9.099 -9.611,9.099 l -4.66,0 L -4.369,0 0,0 Z m 7.427,45 c 8.372,0 16.892,-0.293 16.892,-14.055 0,-7.134 -2.186,-17.256 -6.481,-25.486 C 13.687,-2.402 6.844,-4.879 -1.821,-4.879 l -8.667,0 c -0.362,0 -0.581,0.149 -0.581,0.512 L -0.729,44.27 C -0.583,44.852 -0.293,45 0.145,45 l 7.282,0 z"/>
  </g>
  <g transform="matrix(1.25, 0, 0, -1.25, 464.346375, 355.176636)" id="g52">
    <path id="path54" d="m 0,0 c 0,3.061 -1.749,5.027 -5.316,5.027 -8.299,0 -10.63,-9.468 -11.431,-13.037 C -12.743,-8.01 0,-8.01 0,0 m 2.184,-21.916 c 0.074,-0.143 0.146,-0.217 0.146,-0.361 0,-0.875 -6.408,-5.172 -13.471,-5.172 -8.227,0 -11.795,5.24 -11.795,13.324 0,12.381 7.572,23.664 18.422,23.664 6.479,0 9.609,-3.932 9.609,-9.32 0,-12.668 -16.017,-12.668 -22.426,-12.74 0,-0.657 -0.072,-1.241 -0.072,-1.823 0,-5.166 2.039,-8.008 6.771,-8.008 6.481,0 9.392,3.493 10.414,3.493 0.29,0 0.509,-0.215 0.653,-0.432 l 1.749,-2.625 z"/>
  </g>
  <g transform="matrix(1.25, 0, 0, -1.25, 482.460999, 356.451019)" id="g56">
    <path id="path58" d="m 0,0 c 0.291,1.531 0.509,3.131 0.509,4.154 0,1.453 -0.29,2.91 -0.581,4.367 0,0.292 0.363,0.51 0.655,0.583 l 2.622,1.091 c 0.437,0.145 0.728,0.364 1.021,0.364 0.581,0 1.38,-2.182 1.38,-4.444 0,-1.453 -0.218,-2.617 -0.218,-3.273 l 0.147,0 c 2.694,3.785 6.698,7.717 13.177,7.717 3.789,0 6.628,-1.963 6.628,-5.823 0,-1.75 -0.362,-3.423 -0.727,-5.097 l -5.169,-24.321 c -0.148,-0.511 -0.294,-0.728 -0.876,-0.728 l -3.785,0 c -0.365,0 -0.584,0.148 -0.584,0.435 0,0.145 0,0.364 0.072,0.512 l 5.097,24.102 c 0.219,0.949 0.438,1.966 0.438,2.912 0,2.041 -1.094,3.129 -3.277,3.129 C 8.667,5.68 4.37,-4.004 3.351,-8.809 L 0,-24.682 c -0.147,-0.511 -0.291,-0.728 -0.872,-0.728 l -3.788,0 c -0.365,0 -0.584,0.148 -0.584,0.435 0,0.145 0,0.364 0.075,0.512 L 0,0 Z"/>
  </g>
  <g transform="matrix(1.25, 0, 0, -1.25, 527.338257, 387.303131)" id="g60">
    <path id="path62" d="m 0,0 c -0.145,-0.512 -0.291,-0.729 -0.872,-0.729 l -3.788,0 c -0.363,0 -0.583,0.149 -0.583,0.436 0,0.145 0,0.363 0.076,0.512 L 5.388,49.805 c 0.073,0.437 0.219,1.019 0.73,1.164 l 3.642,0.873 c 0.144,0 0.363,0.144 0.653,0.144 0.509,0 0.584,-0.216 0.509,-0.58 L 4.151,19.805 4.297,19.658 21.917,35.314 c 0.146,0.073 0.365,0.293 0.583,0.293 0.148,0 0.438,-0.22 0.584,-0.293 l 2.474,-2.037 c 0.147,-0.15 0.293,-0.293 0.293,-0.437 0,-0.295 -0.146,-0.438 -0.293,-0.512 L 9.466,18.859 20.389,1.383 c 0.072,-0.145 0.219,-0.289 0.219,-0.438 0,-0.216 -0.291,-0.507 -0.509,-0.582 l -3.205,-1.967 c -0.219,-0.144 -0.437,-0.218 -0.582,-0.218 -0.218,0 -0.437,0.218 -0.511,0.367 L 3.932,18.641 0,0 Z"/>
  </g>
  <g transform="matrix(1.25, 0, 0, -1.25, 587.504883, 355.176636)" id="g64">
    <path id="path66" d="m 0,0 c 0,3.061 -1.746,5.027 -5.316,5.027 -8.299,0 -10.629,-9.468 -11.433,-13.037 C -12.743,-8.01 0,-8.01 0,0 m 2.185,-21.916 c 0.073,-0.143 0.145,-0.217 0.145,-0.361 0,-0.875 -6.406,-5.172 -13.469,-5.172 -8.228,0 -11.798,5.24 -11.798,13.324 0,12.381 7.575,23.664 18.422,23.664 6.482,0 9.612,-3.932 9.612,-9.32 0,-12.668 -16.017,-12.668 -22.426,-12.74 0,-0.657 -0.074,-1.241 -0.074,-1.823 0,-5.166 2.041,-8.008 6.77,-8.008 6.485,0 9.396,3.493 10.415,3.493 0.292,0 0.51,-0.215 0.656,-0.432 l 1.747,-2.625 z"/>
  </g>
  <g transform="matrix(1.25, 0, 0, -1.25, 605.622498, 356.451019)" id="g68">
    <path id="path70" d="m 0,0 c 0.291,1.531 0.509,3.131 0.509,4.154 0,1.453 -0.29,2.91 -0.581,4.367 0,0.292 0.363,0.51 0.655,0.583 l 2.621,1.091 c 0.438,0.145 0.728,0.364 1.021,0.364 0.582,0 1.38,-2.182 1.38,-4.444 0,-1.453 -0.217,-2.617 -0.217,-3.273 l 0.145,0 c 2.696,3.785 6.7,7.717 13.179,7.717 3.788,0 6.628,-1.963 6.628,-5.823 0,-1.75 -0.363,-3.423 -0.729,-5.097 l -5.169,-24.321 c -0.146,-0.511 -0.294,-0.728 -0.874,-0.728 l -3.786,0 c -0.366,0 -0.584,0.148 -0.584,0.435 0,0.145 0,0.364 0.073,0.512 l 5.098,24.102 c 0.218,0.949 0.436,1.966 0.436,2.912 0,2.041 -1.093,3.129 -3.277,3.129 C 8.667,5.68 4.369,-4.004 3.351,-8.809 L 0,-24.682 c -0.146,-0.511 -0.291,-0.728 -0.872,-0.728 l -3.789,0 c -0.364,0 -0.583,0.148 -0.583,0.435 0,0.145 0,0.364 0.074,0.512 L 0,0 Z"/>
  </g>
  <path id="path72" d="M 0 0 L 1052.363 0 L 1052.363 261.841 L 0 261.841 Z M 88.666 203.98 L 88.666 191.274 L 104.891 191.274 L 104.891 181.161 L 88.666 181.161 L 88.666 171.752 L 112.431 171.752 L 112.431 161.622 L 77.037 161.622 L 77.037 214.097 L 113.936 214.097 L 113.936 203.98 Z M 172.224 175.484 L 180.551 169.527 C 176.811 163.42 171.001 160.27 163.387 160.27 C 152.912 160.27 146.376 166.217 146.376 175.484 C 146.376 180.362 148.252 184.384 151.912 187.252 C 155.202 189.846 159.727 191.347 164.901 193.505 C 168.844 195.151 170.715 197.309 170.715 200.177 C 170.715 203.336 168.126 205.702 164.115 205.702 C 159.876 205.702 156.934 203.397 153.917 198.45 L 144.869 204.839 C 149.251 211.881 155.571 215.457 163.819 215.457 C 174.732 215.457 181.911 208.861 181.911 199.306 C 181.911 194.221 179.896 189.975 176.385 187.187 C 173.23 184.665 168.562 183.161 163.249 180.872 C 159.011 178.994 156.934 177.062 156.934 174.409 C 156.934 171.606 159.155 169.594 162.742 169.594 C 166.332 169.594 169.42 171.532 172.224 175.484 Z M 239.764 175.484 L 248.085 169.527 C 244.354 163.42 238.546 160.27 230.934 160.27 C 220.454 160.27 213.929 166.217 213.929 175.484 C 213.929 180.362 215.791 184.384 219.449 187.252 C 222.754 189.846 227.27 191.347 232.442 193.505 C 236.392 195.151 238.259 197.309 238.259 200.177 C 238.259 203.336 235.677 205.702 231.65 205.702 C 227.421 205.702 224.47 203.397 221.461 198.45 L 212.417 204.839 C 216.801 211.881 223.109 215.457 231.372 215.457 C 242.275 215.457 249.452 208.861 249.452 199.306 C 249.452 194.221 247.447 189.975 243.935 187.187 C 240.774 184.665 236.104 183.161 230.792 180.872 C 226.562 178.994 224.47 177.062 224.47 174.409 C 224.47 171.606 226.699 169.594 230.289 169.594 C 233.877 169.594 236.961 171.532 239.764 175.484 Z M 295.247 203.98 L 295.247 191.274 L 311.481 191.274 L 311.481 181.161 L 295.247 181.161 L 295.247 171.752 L 319.007 171.752 L 319.007 161.622 L 283.627 161.622 L 283.627 214.097 L 320.519 214.097 L 320.519 203.98 Z M 393.304 214.097 L 393.304 161.622 L 383.185 161.622 L 383.4 193.505 L 366.6 161.622 L 355.41 161.622 L 355.41 214.097 L 365.524 214.097 L 365.311 178.641 L 383.754 214.097 Z M 78.355 143.465 L 78.355 127.381 C 78.355 120.206 75.836 114.751 71.603 111.881 C 68.092 109.52 63.345 109.223 56.82 109.223 L 41.673 109.223 L 41.673 161.703 L 56.82 161.703 C 63.345 161.703 68.155 161.279 71.603 158.964 C 75.836 156.169 78.355 150.641 78.355 143.465 Z M 66.578 140.951 C 66.578 148.565 63.562 151.584 56.031 151.584 L 53.301 151.584 L 53.301 119.349 L 56.031 119.349 C 63.645 119.349 66.578 122.284 66.578 129.896 Z M 154.725 144.679 L 154.725 109.223 L 143.098 109.223 L 143.098 142.03 C 143.098 149.57 142.02 152.865 135.923 152.865 C 129.893 152.865 128.746 149.635 128.746 142.03 L 128.746 109.223 L 117.112 109.223 L 117.112 144.679 C 117.112 156.959 123.211 162.995 135.923 162.995 C 148.693 162.995 154.725 157.031 154.725 144.679 Z M 207.838 161.703 L 207.772 109.223 L 196.138 109.223 L 196.213 161.703 Z M 272.516 123.09 L 280.845 117.12 C 277.115 111.01 271.293 107.86 263.69 107.86 C 253.205 107.86 246.678 113.825 246.678 123.09 C 246.678 127.965 248.545 131.974 252.207 134.861 C 255.506 137.428 260.031 138.946 265.202 141.095 C 269.145 142.748 271.011 144.908 271.011 147.778 C 271.011 150.931 268.43 153.293 264.41 153.293 C 260.177 153.293 257.228 151.005 254.212 146.044 L 245.161 152.44 C 249.551 159.464 255.861 163.055 264.117 163.055 C 275.036 163.055 282.205 156.466 282.205 146.911 C 282.205 141.818 280.191 137.581 276.677 134.776 C 273.525 132.265 268.855 130.759 263.541 128.461 C 259.312 126.601 257.228 124.66 257.228 122 C 257.228 119.198 259.447 117.184 263.038 117.184 C 266.628 117.184 269.713 119.125 272.516 123.09 Z M 354.202 122.581 C 354.202 113.47 348.387 109.223 336.546 109.223 L 319.175 109.223 L 319.175 161.703 L 336.901 161.703 C 349.251 161.703 355.276 156.895 355.276 146.63 C 355.276 140.016 352.481 135.859 346.885 134.07 C 351.983 131.764 354.202 128.254 354.202 122.581 Z M 342.428 123.805 C 342.428 128.171 340.136 130.334 335.398 130.334 L 330.803 130.334 L 330.803 117.335 L 335.398 117.335 C 340.201 117.335 342.428 119.279 342.428 123.805 Z M 343.585 145.84 C 343.585 150.851 341.065 153.146 335.831 153.146 L 330.803 153.146 L 330.803 138.503 L 335.831 138.503 C 341.065 138.503 343.585 140.813 343.585 145.84 Z M 430.933 144.679 L 430.933 109.223 L 419.312 109.223 L 419.312 142.03 C 419.312 149.57 418.228 152.865 412.136 152.865 C 406.103 152.865 404.947 149.635 404.947 142.03 L 404.947 109.223 L 393.322 109.223 L 393.322 144.679 C 393.322 156.959 399.42 162.995 412.136 162.995 C 424.903 162.995 430.933 157.031 430.933 144.679 Z M 507.596 124.723 C 507.596 118.634 505.01 113.961 500.275 111.456 C 496.472 109.44 491.158 109.223 484.12 109.223 L 470.923 109.223 L 470.923 161.703 L 482.546 161.703 L 482.546 140.314 L 486.426 140.314 L 496.623 161.703 L 509.458 161.703 L 497.983 138.946 C 504.218 136.791 507.596 131.764 507.596 124.723 Z M 495.961 125.021 C 495.961 130.905 492.811 131.906 485.772 131.906 L 482.546 131.906 L 482.546 118.126 L 485.772 118.126 C 492.811 118.126 495.961 119.125 495.961 125.021 Z M 568.176 142.885 L 568.176 144.908 C 568.176 150.36 566.385 152.865 562.14 152.865 C 556.401 152.865 556.12 149.136 556.12 142.03 L 556.12 128.816 C 556.12 121.638 556.401 117.99 562.14 117.99 C 565.8 117.99 567.893 120.07 568.176 124.008 L 579.947 124.008 C 579.446 113.888 572.778 107.86 562.14 107.86 C 556.551 107.86 552.028 109.585 549.01 112.741 C 544.712 117.184 544.357 122.796 544.357 130.83 L 544.357 140.095 C 544.357 148.21 544.712 153.736 549.01 158.173 C 551.952 161.279 556.487 163.055 561.79 163.055 C 566.598 163.055 570.04 161.56 573.122 158.103 L 574.783 162.35 L 579.947 162.35 L 579.947 133.918 L 562.068 133.918 L 562.068 142.885 Z M 69.611 63.872 L 69.611 37.655 L 61.016 37.655 L 61.016 61.922 C 61.016 67.489 60.225 69.932 55.705 69.932 C 51.24 69.932 50.399 67.546 50.399 61.922 L 50.399 37.655 L 41.802 37.655 L 41.802 63.872 C 41.802 72.959 46.306 77.416 55.705 77.416 C 65.159 77.416 69.611 73.007 69.611 63.872 Z M 108.587 76.471 L 108.587 37.655 L 101.095 37.655 L 101.26 61.23 L 88.83 37.655 L 80.554 37.655 L 80.554 76.471 L 88.035 76.471 L 87.879 50.24 L 101.52 76.471 Z M 128.915 76.471 L 128.866 37.655 L 120.262 37.655 L 120.311 76.471 Z M 169.53 37.655 L 160.922 37.655 L 153.12 64.785 L 145.267 37.655 L 136.67 37.655 L 148.556 76.471 L 157.634 76.471 Z M 184.877 68.98 L 184.877 59.579 L 196.869 59.579 L 196.869 52.092 L 184.877 52.092 L 184.877 45.14 L 202.439 45.14 L 202.439 37.655 L 176.272 37.655 L 176.272 76.471 L 203.552 76.471 L 203.552 68.98 Z M 239.284 49.119 C 239.284 44.609 237.371 41.161 233.875 39.301 C 231.057 37.816 227.131 37.655 221.924 37.655 L 212.156 37.655 L 212.156 76.471 L 220.754 76.471 L 220.754 60.641 L 223.625 60.641 L 231.166 76.471 L 240.669 76.471 L 232.175 59.634 C 236.786 58.029 239.284 54.325 239.284 49.119 Z M 230.687 49.34 C 230.687 53.689 228.356 54.427 223.147 54.427 L 220.754 54.427 L 220.754 44.239 L 223.147 44.239 C 228.356 44.239 230.687 44.972 230.687 49.34 Z M 265.567 47.897 L 271.724 43.489 C 268.961 38.979 264.661 36.642 259.032 36.642 C 251.289 36.642 246.454 41.049 246.454 47.897 C 246.454 51.505 247.839 54.477 250.546 56.607 C 252.977 58.522 256.327 59.634 260.15 61.23 C 263.077 62.439 264.456 64.04 264.456 66.169 C 264.456 68.497 262.539 70.246 259.562 70.246 C 256.436 70.246 254.256 68.554 252.021 64.889 L 245.33 69.61 C 248.574 74.815 253.251 77.472 259.355 77.472 C 267.426 77.472 272.732 72.591 272.732 65.524 C 272.732 61.755 271.245 58.62 268.645 56.55 C 266.307 54.696 262.852 53.569 258.936 51.876 C 255.799 50.505 254.256 49.064 254.256 47.106 C 254.256 45.036 255.901 43.545 258.555 43.545 C 261.212 43.545 263.489 44.972 265.567 47.897 Z M 290.731 76.471 L 290.672 37.655 L 282.076 37.655 L 282.131 76.471 Z M 326.24 45.14 L 326.24 37.655 L 298 37.655 L 298 45.14 L 307.824 45.14 L 307.824 76.471 L 316.431 76.471 L 316.431 45.14 Z M 346.632 35.159 L 353.16 35.159 L 353.16 28.16 L 346.632 28.16 Z M 337.235 35.159 L 343.714 35.159 L 343.714 28.16 L 337.235 28.16 Z M 340.101 37.655 L 328.945 76.471 L 337.285 76.471 L 339.305 68.717 L 350.98 68.717 L 353.06 76.471 L 361.392 76.471 L 350.239 37.655 Z M 341.006 62.077 L 345.197 44.552 L 349.34 62.077 Z M 392.395 45.14 L 392.395 37.655 L 364.149 37.655 L 364.149 45.14 L 373.975 45.14 L 373.975 76.471 L 382.571 76.471 L 382.571 45.14 Z"/>
</svg>